<svg xmlns="http://www.w3.org/2000/svg" xmlns:xlink="http://www.w3.org/1999/xlink" width="500" zoomAndPan="magnify" viewBox="0 0 375 374.999991" height="500" preserveAspectRatio="xMidYMid meet" version="1.0"><defs><g/><clipPath id="c5b1963d62"><path d="M 89.433594 188.8125 L 177.933594 188.8125 L 177.933594 284.0625 L 89.433594 284.0625 Z M 89.433594 188.8125 " clip-rule="nonzero"/></clipPath><clipPath id="99fc29af2d"><path d="M 89.730469 109.105469 L 286.980469 109.105469 L 286.980469 213.355469 L 89.730469 213.355469 Z M 89.730469 109.105469 " clip-rule="nonzero"/></clipPath></defs><g clip-path="url(#c5b1963d62)"><path fill="#ffffff" d="M 283.882812 87.65625 L 91.441406 87.65625 C 90.332031 87.65625 89.433594 88.554688 89.433594 89.660156 L 89.433594 282.101562 C 89.433594 283.210938 90.332031 284.109375 91.441406 284.109375 L 283.882812 284.109375 C 284.992188 284.109375 285.886719 283.210938 285.886719 282.101562 L 285.886719 89.660156 C 285.886719 88.554688 284.992188 87.65625 283.882812 87.65625 Z M 281.878906 280.097656 L 93.445312 280.097656 L 93.445312 91.664062 L 281.878906 91.664062 Z M 281.878906 280.097656 " fill-opacity="1" fill-rule="nonzero"/></g><g clip-path="url(#99fc29af2d)"><path fill="#ffffff" d="M 286.980469 304.632812 L 286.980469 111.125 C 286.980469 110.011719 286.078125 109.105469 284.964844 109.105469 L 91.453125 109.105469 C 90.339844 109.105469 89.4375 110.011719 89.4375 111.125 L 89.4375 304.632812 C 89.4375 305.746094 90.339844 306.648438 91.453125 306.648438 L 284.964844 306.648438 C 286.078125 306.648438 286.980469 305.746094 286.980469 304.632812 Z M 93.46875 302.617188 L 93.46875 113.140625 L 282.949219 113.140625 L 282.949219 302.617188 Z M 93.46875 302.617188 " fill-opacity="1" fill-rule="nonzero"/></g><g fill="#ffffff" fill-opacity="1"><g transform="translate(117.333938, 262.085101)"><g><path d="M 45.90625 -46.421875 L 45.90625 0 L 42.515625 0 L 42.515625 -22.09375 L 11.46875 -22.09375 L 11.46875 0 L 8.09375 0 L 8.09375 -46.421875 L 11.46875 -46.421875 L 11.46875 -25.078125 L 42.515625 -25.078125 L 42.515625 -46.421875 Z M 45.90625 -46.421875 "/></g></g></g><g fill="#ffffff" fill-opacity="1"><g transform="translate(186.051686, 262.085101)"><g><path d="M 20.296875 0.328125 C 16.890625 0.328125 13.648438 -0.253906 10.578125 -1.421875 C 7.503906 -2.597656 5.101562 -4.113281 3.375 -5.96875 L 4.90625 -8.484375 C 6.539062 -6.765625 8.738281 -5.363281 11.5 -4.28125 C 14.269531 -3.195312 17.179688 -2.65625 20.234375 -2.65625 C 24.648438 -2.65625 27.984375 -3.492188 30.234375 -5.171875 C 32.492188 -6.847656 33.625 -9.035156 33.625 -11.734375 C 33.625 -13.816406 33.023438 -15.476562 31.828125 -16.71875 C 30.640625 -17.957031 29.160156 -18.90625 27.390625 -19.5625 C 25.617188 -20.226562 23.234375 -20.914062 20.234375 -21.625 C 16.828125 -22.46875 14.09375 -23.285156 12.03125 -24.078125 C 9.976562 -24.867188 8.234375 -26.09375 6.796875 -27.75 C 5.359375 -29.414062 4.640625 -31.640625 4.640625 -34.421875 C 4.640625 -36.679688 5.234375 -38.75 6.421875 -40.625 C 7.617188 -42.5 9.445312 -43.988281 11.90625 -45.09375 C 14.363281 -46.207031 17.425781 -46.765625 21.09375 -46.765625 C 23.65625 -46.765625 26.175781 -46.382812 28.65625 -45.625 C 31.132812 -44.875 33.28125 -43.859375 35.09375 -42.578125 L 33.828125 -39.859375 C 31.972656 -41.140625 29.925781 -42.113281 27.6875 -42.78125 C 25.457031 -43.445312 23.257812 -43.78125 21.09375 -43.78125 C 16.800781 -43.78125 13.550781 -42.914062 11.34375 -41.1875 C 9.132812 -39.46875 8.03125 -37.234375 8.03125 -34.484375 C 8.03125 -32.410156 8.625 -30.753906 9.8125 -29.515625 C 11.007812 -28.273438 12.488281 -27.320312 14.25 -26.65625 C 16.019531 -26 18.429688 -25.296875 21.484375 -24.546875 C 24.890625 -23.703125 27.609375 -22.878906 29.640625 -22.078125 C 31.679688 -21.285156 33.421875 -20.082031 34.859375 -18.46875 C 36.296875 -16.851562 37.015625 -14.675781 37.015625 -11.9375 C 37.015625 -9.6875 36.40625 -7.628906 35.1875 -5.765625 C 33.96875 -3.910156 32.097656 -2.429688 29.578125 -1.328125 C 27.054688 -0.222656 23.960938 0.328125 20.296875 0.328125 Z M 20.296875 0.328125 "/></g></g></g><g fill="#ffffff" fill-opacity="1"><g transform="translate(241.172398, 262.085101)"><g><path d="M 8.09375 -46.421875 L 26.46875 -46.421875 C 31.28125 -46.421875 35.554688 -45.425781 39.296875 -43.4375 C 43.035156 -41.445312 45.941406 -38.691406 48.015625 -35.171875 C 50.097656 -31.660156 51.140625 -27.675781 51.140625 -23.21875 C 51.140625 -18.75 50.097656 -14.753906 48.015625 -11.234375 C 45.941406 -7.722656 43.035156 -4.972656 39.296875 -2.984375 C 35.554688 -0.992188 31.28125 0 26.46875 0 L 8.09375 0 Z M 26.203125 -3.046875 C 30.492188 -3.046875 34.273438 -3.894531 37.546875 -5.59375 C 40.816406 -7.300781 43.332031 -9.679688 45.09375 -12.734375 C 46.863281 -15.785156 47.75 -19.28125 47.75 -23.21875 C 47.75 -27.15625 46.863281 -30.644531 45.09375 -33.6875 C 43.332031 -36.738281 40.816406 -39.113281 37.546875 -40.8125 C 34.273438 -42.519531 30.492188 -43.375 26.203125 -43.375 L 11.46875 -43.375 L 11.46875 -3.046875 Z M 26.203125 -3.046875 "/></g></g></g><g fill="#ffffff" fill-opacity="1"><g transform="translate(123.75026, 205.629346)"><g><path d="M 1.234375 -6.75 L 3.84375 -6.75 C 4.539062 -6.75 5.160156 -6.601562 5.703125 -6.3125 C 6.242188 -6.019531 6.660156 -5.617188 6.953125 -5.109375 C 7.253906 -4.597656 7.40625 -4.019531 7.40625 -3.375 C 7.40625 -2.726562 7.253906 -2.148438 6.953125 -1.640625 C 6.660156 -1.128906 6.242188 -0.726562 5.703125 -0.4375 C 5.160156 -0.144531 4.539062 0 3.84375 0 L 1.234375 0 Z M 3.8125 -0.296875 C 4.46875 -0.296875 5.039062 -0.425781 5.53125 -0.6875 C 6.03125 -0.957031 6.410156 -1.320312 6.671875 -1.78125 C 6.941406 -2.25 7.078125 -2.78125 7.078125 -3.375 C 7.078125 -3.96875 6.941406 -4.492188 6.671875 -4.953125 C 6.410156 -5.421875 6.03125 -5.785156 5.53125 -6.046875 C 5.039062 -6.316406 4.46875 -6.453125 3.8125 -6.453125 L 1.5625 -6.453125 L 1.5625 -0.296875 Z M 3.8125 -0.296875 "/></g></g></g><g fill="#ffffff" fill-opacity="1"><g transform="translate(134.061731, 205.629346)"><g><path d="M 5.796875 -0.296875 L 5.796875 0 L 1.234375 0 L 1.234375 -6.75 L 5.65625 -6.75 L 5.65625 -6.453125 L 1.5625 -6.453125 L 1.5625 -3.578125 L 5.21875 -3.578125 L 5.21875 -3.28125 L 1.5625 -3.28125 L 1.5625 -0.296875 Z M 5.796875 -0.296875 "/></g></g></g><g fill="#ffffff" fill-opacity="1"><g transform="translate(142.849364, 205.629346)"><g><path d="M 2.9375 0.03125 C 2.445312 0.03125 1.984375 -0.0507812 1.546875 -0.21875 C 1.109375 -0.394531 0.769531 -0.617188 0.53125 -0.890625 L 0.703125 -1.125 C 0.929688 -0.875 1.242188 -0.664062 1.640625 -0.5 C 2.046875 -0.332031 2.476562 -0.25 2.9375 -0.25 C 3.601562 -0.25 4.109375 -0.378906 4.453125 -0.640625 C 4.796875 -0.910156 4.96875 -1.253906 4.96875 -1.671875 C 4.96875 -1.992188 4.878906 -2.253906 4.703125 -2.453125 C 4.523438 -2.648438 4.300781 -2.796875 4.03125 -2.890625 C 3.769531 -2.992188 3.410156 -3.097656 2.953125 -3.203125 C 2.472656 -3.328125 2.082031 -3.445312 1.78125 -3.5625 C 1.488281 -3.675781 1.238281 -3.851562 1.03125 -4.09375 C 0.820312 -4.332031 0.71875 -4.648438 0.71875 -5.046875 C 0.71875 -5.367188 0.800781 -5.660156 0.96875 -5.921875 C 1.132812 -6.179688 1.390625 -6.390625 1.734375 -6.546875 C 2.078125 -6.703125 2.507812 -6.78125 3.03125 -6.78125 C 3.394531 -6.78125 3.753906 -6.722656 4.109375 -6.609375 C 4.460938 -6.503906 4.765625 -6.359375 5.015625 -6.171875 L 4.875 -5.90625 C 4.613281 -6.101562 4.320312 -6.25 4 -6.34375 C 3.675781 -6.445312 3.351562 -6.5 3.03125 -6.5 C 2.375 -6.5 1.878906 -6.359375 1.546875 -6.078125 C 1.210938 -5.804688 1.046875 -5.460938 1.046875 -5.046875 C 1.046875 -4.722656 1.132812 -4.460938 1.3125 -4.265625 C 1.5 -4.066406 1.722656 -3.914062 1.984375 -3.8125 C 2.253906 -3.707031 2.613281 -3.601562 3.0625 -3.5 C 3.550781 -3.375 3.941406 -3.253906 4.234375 -3.140625 C 4.535156 -3.035156 4.785156 -2.863281 4.984375 -2.625 C 5.191406 -2.394531 5.296875 -2.082031 5.296875 -1.6875 C 5.296875 -1.375 5.207031 -1.082031 5.03125 -0.8125 C 4.863281 -0.550781 4.601562 -0.34375 4.25 -0.1875 C 3.894531 -0.0390625 3.457031 0.03125 2.9375 0.03125 Z M 2.9375 0.03125 "/></g></g></g><g fill="#ffffff" fill-opacity="1"><g transform="translate(151.01975, 205.629346)"><g><path d="M 1.234375 -6.75 L 1.5625 -6.75 L 1.5625 0 L 1.234375 0 Z M 1.234375 -6.75 "/></g></g></g><g fill="#ffffff" fill-opacity="1"><g transform="translate(156.161763, 205.629346)"><g><path d="M 6.109375 -3.328125 L 6.421875 -3.328125 L 6.421875 -0.828125 C 6.128906 -0.546875 5.773438 -0.332031 5.359375 -0.1875 C 4.953125 -0.0390625 4.519531 0.03125 4.0625 0.03125 C 3.394531 0.03125 2.796875 -0.113281 2.265625 -0.40625 C 1.734375 -0.695312 1.3125 -1.101562 1 -1.625 C 0.695312 -2.144531 0.546875 -2.726562 0.546875 -3.375 C 0.546875 -4.019531 0.695312 -4.601562 1 -5.125 C 1.3125 -5.644531 1.734375 -6.050781 2.265625 -6.34375 C 2.796875 -6.632812 3.394531 -6.78125 4.0625 -6.78125 C 4.539062 -6.78125 4.984375 -6.707031 5.390625 -6.5625 C 5.796875 -6.414062 6.144531 -6.195312 6.4375 -5.90625 L 6.234375 -5.671875 C 5.679688 -6.210938 4.957031 -6.484375 4.0625 -6.484375 C 3.457031 -6.484375 2.910156 -6.347656 2.421875 -6.078125 C 1.941406 -5.804688 1.5625 -5.429688 1.28125 -4.953125 C 1.007812 -4.472656 0.875 -3.945312 0.875 -3.375 C 0.875 -2.789062 1.007812 -2.257812 1.28125 -1.78125 C 1.5625 -1.3125 1.941406 -0.941406 2.421875 -0.671875 C 2.910156 -0.398438 3.457031 -0.265625 4.0625 -0.265625 C 4.90625 -0.265625 5.585938 -0.5 6.109375 -0.96875 Z M 6.109375 -3.328125 "/></g></g></g><g fill="#ffffff" fill-opacity="1"><g transform="translate(165.971718, 205.629346)"><g><path d="M 6.625 -6.75 L 6.625 0 L 6.359375 0 L 1.5625 -6.15625 L 1.5625 0 L 1.234375 0 L 1.234375 -6.75 L 1.5 -6.75 L 6.296875 -0.59375 L 6.296875 -6.75 Z M 6.625 -6.75 "/></g></g></g><g fill="#ffffff" fill-opacity="1"><g transform="translate(176.177089, 205.629346)"><g/></g></g><g fill="#ffffff" fill-opacity="1"><g transform="translate(180.962253, 205.629346)"><g><path d="M 1.234375 -6.75 L 3.84375 -6.75 C 4.539062 -6.75 5.160156 -6.601562 5.703125 -6.3125 C 6.242188 -6.019531 6.660156 -5.617188 6.953125 -5.109375 C 7.253906 -4.597656 7.40625 -4.019531 7.40625 -3.375 C 7.40625 -2.726562 7.253906 -2.148438 6.953125 -1.640625 C 6.660156 -1.128906 6.242188 -0.726562 5.703125 -0.4375 C 5.160156 -0.144531 4.539062 0 3.84375 0 L 1.234375 0 Z M 3.8125 -0.296875 C 4.46875 -0.296875 5.039062 -0.425781 5.53125 -0.6875 C 6.03125 -0.957031 6.410156 -1.320312 6.671875 -1.78125 C 6.941406 -2.25 7.078125 -2.78125 7.078125 -3.375 C 7.078125 -3.96875 6.941406 -4.492188 6.671875 -4.953125 C 6.410156 -5.421875 6.03125 -5.785156 5.53125 -6.046875 C 5.039062 -6.316406 4.46875 -6.453125 3.8125 -6.453125 L 1.5625 -6.453125 L 1.5625 -0.296875 Z M 3.8125 -0.296875 "/></g></g></g><g fill="#ffffff" fill-opacity="1"><g transform="translate(191.273722, 205.629346)"><g><path d="M 5.984375 0 L 4.3125 -2.328125 C 4.09375 -2.285156 3.847656 -2.265625 3.578125 -2.265625 L 1.5625 -2.265625 L 1.5625 0 L 1.234375 0 L 1.234375 -6.75 L 3.578125 -6.75 C 4.421875 -6.75 5.078125 -6.550781 5.546875 -6.15625 C 6.015625 -5.757812 6.25 -5.210938 6.25 -4.515625 C 6.25 -3.972656 6.109375 -3.519531 5.828125 -3.15625 C 5.554688 -2.789062 5.160156 -2.539062 4.640625 -2.40625 L 6.359375 0 Z M 3.59375 -2.5625 C 4.34375 -2.5625 4.921875 -2.726562 5.328125 -3.0625 C 5.734375 -3.40625 5.9375 -3.890625 5.9375 -4.515625 C 5.9375 -5.128906 5.734375 -5.601562 5.328125 -5.9375 C 4.921875 -6.28125 4.34375 -6.453125 3.59375 -6.453125 L 1.5625 -6.453125 L 1.5625 -2.5625 Z M 3.59375 -2.5625 "/></g></g></g><g fill="#ffffff" fill-opacity="1"><g transform="translate(200.543585, 205.629346)"><g><path d="M 1.234375 -6.75 L 1.5625 -6.75 L 1.5625 0 L 1.234375 0 Z M 1.234375 -6.75 "/></g></g></g><g fill="#ffffff" fill-opacity="1"><g transform="translate(205.685598, 205.629346)"><g><path d="M 6.453125 -6.75 L 3.421875 0 L 3.109375 0 L 0.078125 -6.75 L 0.4375 -6.75 L 3.28125 -0.421875 L 6.109375 -6.75 Z M 6.453125 -6.75 "/></g></g></g><g fill="#ffffff" fill-opacity="1"><g transform="translate(214.560033, 205.629346)"><g><path d="M 5.796875 -0.296875 L 5.796875 0 L 1.234375 0 L 1.234375 -6.75 L 5.65625 -6.75 L 5.65625 -6.453125 L 1.5625 -6.453125 L 1.5625 -3.578125 L 5.21875 -3.578125 L 5.21875 -3.28125 L 1.5625 -3.28125 L 1.5625 -0.296875 Z M 5.796875 -0.296875 "/></g></g></g><g fill="#ffffff" fill-opacity="1"><g transform="translate(223.34767, 205.629346)"><g><path d="M 2.9375 0.03125 C 2.445312 0.03125 1.984375 -0.0507812 1.546875 -0.21875 C 1.109375 -0.394531 0.769531 -0.617188 0.53125 -0.890625 L 0.703125 -1.125 C 0.929688 -0.875 1.242188 -0.664062 1.640625 -0.5 C 2.046875 -0.332031 2.476562 -0.25 2.9375 -0.25 C 3.601562 -0.25 4.109375 -0.378906 4.453125 -0.640625 C 4.796875 -0.910156 4.96875 -1.253906 4.96875 -1.671875 C 4.96875 -1.992188 4.878906 -2.253906 4.703125 -2.453125 C 4.523438 -2.648438 4.300781 -2.796875 4.03125 -2.890625 C 3.769531 -2.992188 3.410156 -3.097656 2.953125 -3.203125 C 2.472656 -3.328125 2.082031 -3.445312 1.78125 -3.5625 C 1.488281 -3.675781 1.238281 -3.851562 1.03125 -4.09375 C 0.820312 -4.332031 0.71875 -4.648438 0.71875 -5.046875 C 0.71875 -5.367188 0.800781 -5.660156 0.96875 -5.921875 C 1.132812 -6.179688 1.390625 -6.390625 1.734375 -6.546875 C 2.078125 -6.703125 2.507812 -6.78125 3.03125 -6.78125 C 3.394531 -6.78125 3.753906 -6.722656 4.109375 -6.609375 C 4.460938 -6.503906 4.765625 -6.359375 5.015625 -6.171875 L 4.875 -5.90625 C 4.613281 -6.101562 4.320312 -6.25 4 -6.34375 C 3.675781 -6.445312 3.351562 -6.5 3.03125 -6.5 C 2.375 -6.5 1.878906 -6.359375 1.546875 -6.078125 C 1.210938 -5.804688 1.046875 -5.460938 1.046875 -5.046875 C 1.046875 -4.722656 1.132812 -4.460938 1.3125 -4.265625 C 1.5 -4.066406 1.722656 -3.914062 1.984375 -3.8125 C 2.253906 -3.707031 2.613281 -3.601562 3.0625 -3.5 C 3.550781 -3.375 3.941406 -3.253906 4.234375 -3.140625 C 4.535156 -3.035156 4.785156 -2.863281 4.984375 -2.625 C 5.191406 -2.394531 5.296875 -2.082031 5.296875 -1.6875 C 5.296875 -1.375 5.207031 -1.082031 5.03125 -0.8125 C 4.863281 -0.550781 4.601562 -0.34375 4.25 -0.1875 C 3.894531 -0.0390625 3.457031 0.03125 2.9375 0.03125 Z M 2.9375 0.03125 "/></g></g></g></svg>